<svg id="Layer_1" data-name="Layer 1" xmlns="http://www.w3.org/2000/svg" viewBox="0 0 49.99 50.04"><defs><style>.cls-1,.cls-2{fill:#4f4f4f;}.cls-2{opacity:0;}</style></defs><title>hamburger</title><path class="cls-1" d="M15.83,17.58H34a1.66,1.66,0,0,1,1.66,1.66h0A1.65,1.65,0,0,1,34,20.89H15.83a1.65,1.65,0,0,1-1.65-1.65h0A1.65,1.65,0,0,1,15.83,17.58Z" transform="translate(-0.04 0.04)"/><path class="cls-1" d="M15.83,29.16H34a1.65,1.65,0,0,1,1.66,1.65h0A1.66,1.66,0,0,1,34,32.47H15.83a1.66,1.66,0,0,1-1.65-1.66h0A1.65,1.65,0,0,1,15.83,29.16Z" transform="translate(-0.04 0.04)"/><path class="cls-1" d="M15.83,23.09H34a1.66,1.66,0,0,1,1.66,1.66h0A1.65,1.65,0,0,1,34,26.4H15.83a1.65,1.65,0,0,1-1.65-1.65h0A1.66,1.66,0,0,1,15.83,23.09Z" transform="translate(-0.04 0.04)"/><rect class="cls-2" width="49.99" height="50.04"/></svg>