<svg width="50" height="36" viewBox="0 0 50 36" fill="none" xmlns="http://www.w3.org/2000/svg">
<path d="M49.093 14.9115L40.535 3.23786C39.4076 1.7005 37.1221 0.542358 35.226 0.542358H4.01763C1.80383 0.542358 0 2.34619 0 4.55999V31.1358C0 33.3496 1.80383 35.1534 4.01763 35.1534H35.226C37.1323 35.1534 39.4179 33.9953 40.535 32.4579L49.093 20.7842C50.3023 19.1444 50.3023 16.5616 49.093 14.9115ZM46.8587 19.1649L38.3007 30.8386C37.7063 31.6585 36.2304 32.3964 35.2157 32.3964H4.01763C3.33094 32.3964 2.76724 31.8327 2.76724 31.146V4.55999C2.76724 3.8733 3.33094 3.3096 4.01763 3.3096H35.226C36.2406 3.3096 37.7063 4.05778 38.311 4.86746L46.8689 16.5411C47.3609 17.2278 47.3609 18.4782 46.8587 19.1649Z" fill="#4F4F4F"/>
</svg>
