<svg width="39" height="55" viewBox="0 0 39 55" fill="none" xmlns="http://www.w3.org/2000/svg">
<path d="M19.557 12C15.698 12 12.557 15.141 12.557 19C12.557 22.859 15.698 26 19.557 26C23.416 26 26.557 22.859 26.557 19C26.557 15.141 23.416 12 19.557 12ZM19.557 24C16.8 24 14.557 21.757 14.557 19C14.557 16.243 16.8 14 19.557 14C22.314 14 24.557 16.243 24.557 19C24.557 21.757 22.314 24 19.557 24Z" fill="#4F4F4F"/>
<path d="M32.94 5.617C29.318 1.995 24.502 0 19.38 0C14.257 0 9.44202 1.995 5.82002 5.617C-0.882977 12.319 -1.71598 24.929 4.01602 32.569L19.38 54.757L34.721 32.6C40.476 24.929 39.643 12.319 32.94 5.617ZM33.099 31.431L19.38 51.243L5.63902 31.4C0.440024 24.468 1.18502 13.08 7.23502 7.031C10.479 3.787 14.792 2 19.38 2C23.968 2 28.281 3.787 31.526 7.031C37.576 13.08 38.321 24.468 33.099 31.431Z" fill="#4F4F4F"/>
</svg>
