<svg width="42" height="42" viewBox="0 0 42 42" fill="none" xmlns="http://www.w3.org/2000/svg">
<path d="M20.11 20.944L20.078 20.88V20.864L20.062 20.832V20.816L20.046 20.784V20.6309L20.03 20.6149V7.206C20.03 6.86314 20.2981 6.595 20.641 6.595C20.9932 6.595 21.268 6.87241 21.268 7.206V19.523V20.023H21.768H31.166C31.4996 20.023 31.777 20.2978 31.777 20.65C31.777 21.0022 31.4996 21.277 31.166 21.277H20.674H20.642C20.4271 21.277 20.2242 21.153 20.1142 20.9683L20.11 20.96V20.944ZM7.27339 7.2815L7.27259 7.2823C3.86662 10.7047 1.746 15.4329 1.746 20.65C1.746 25.8671 3.86559 30.5953 7.27259 34.0187L7.27344 34.0196C10.6969 37.4431 15.4258 39.547 20.642 39.547C25.8582 39.547 30.587 37.4431 34.0106 34.0196C37.4333 30.5968 39.554 25.8682 39.554 20.65C39.554 15.4328 37.4343 10.7042 34.0106 7.28145C30.587 3.85794 25.8582 1.754 20.642 1.754C15.4259 1.754 10.697 3.8569 7.27339 7.2815ZM20.642 0.5C26.2012 0.5 31.2348 2.75988 34.8906 6.40068C38.5312 10.0574 40.791 15.0909 40.791 20.65C40.791 26.2091 38.5312 31.2427 34.8904 34.8994C31.2337 38.5402 26.2011 40.8 20.642 40.8C15.0823 40.8 10.0499 38.5398 6.40955 34.8994C2.75367 31.2436 0.507996 26.2113 0.507996 20.65C0.507996 15.0896 2.7527 10.0564 6.4085 6.4006C10.0499 2.76019 15.0823 0.5 20.642 0.5Z" fill="#4F4F4F" stroke="#4F4F4F"/>
</svg>
